<svg xmlns="http://www.w3.org/2000/svg" style="display:none">
  <symbol id="volume" viewBox="0 0 24 24" fill="currentColor">
    <path d="M3 10v4h4l5 4V6L7 10H3z"/>
    <path d="M16.5 12c0-1.77-1.02-3.29-2.5-4.03v8.06c1.48-.74 2.5-2.26 2.5-4.03z"/>
    <path d="M14 3.23v2.06c2.89 1 5 3.77 5 6.71s-2.11 5.71-5 6.71v2.06c4.01-1.05 7-4.71 7-8.77s-2.99-7.72-7-8.77z"/>
  </symbol>
  <symbol id="fullscreen" viewBox="0 0 24 24" fill="currentColor">
    <path d="M7 14H5v5h5v-2H7v-3zm0-4h3V7h2v5H7V10zM17 5h-3V3h5v5h-2V5zm-3 16h5v-5h-2v3h-3v2z"/>
  </symbol>
  <symbol id="refresh" viewBox="0 0 24 24" fill="currentColor">
    <path d="M17.65 6.35A7.95 7.95 0 0012 4V1L7 6l5 5V7a5 5 0 11-5 5H5a7 7 0 107.75-6.96l.9-.9 3.99 3.99 1.01-1.01z"/>
  </symbol>
  <symbol id="warning" viewBox="0 0 24 24" fill="currentColor">
    <path d="M1 21h22L12 2 1 21zm12-3h-2v-2h2v2zm0-4h-2v-4h2v4z"/>
  </symbol>
</svg>